<svg width="32" height="32" viewBox="0 0 32 32" fill="none" xmlns="http://www.w3.org/2000/svg">
  <defs>
    <linearGradient id="faviconGradient" x1="0%" y1="0%" x2="100%" y2="100%">
      <stop offset="0%" style="stop-color:#4f46e5;stop-opacity:1" />
      <stop offset="100%" style="stop-color:#7c3aed;stop-opacity:1" />
    </linearGradient>
  </defs>
  <!-- Background -->
  <rect width="32" height="32" rx="7" fill="url(#faviconGradient)"/>
  
  <!-- Decorative circle -->
  <circle cx="16" cy="16" r="11" fill="white" opacity="0.15"/>
  
  <!-- Main shape -->
  <path d="M10 10C10 8.89543 10.8954 8 12 8H20C21.1046 8 22 8.89543 22 10V22C22 23.1046 21.1046 24 20 24H12C10.8954 24 10 23.1046 10 22V10Z" fill="white"/>
  
  <!-- Content lines -->
  <rect x="12" y="12" width="8" height="1" rx="0.5" fill="url(#faviconGradient)"/>
  <rect x="12" y="15" width="6" height="1" rx="0.5" fill="url(#faviconGradient)"/>
  <rect x="12" y="18" width="7" height="1" rx="0.5" fill="url(#faviconGradient)"/>
  
  <!-- Chart indicator -->
  <path d="M21 19L19 17L17.5 18.5L16 16" stroke="url(#faviconGradient)" stroke-width="1.5" stroke-linecap="round" stroke-linejoin="round" fill="none"/>
  <circle cx="21" cy="19" r="1" fill="url(#faviconGradient)"/>
</svg>
