<svg width="200" height="60" viewBox="0 0 200 60" fill="none" xmlns="http://www.w3.org/2000/svg">
  <defs>
    <linearGradient id="logoGradient" x1="0%" y1="0%" x2="100%" y2="100%">
      <stop offset="0%" style="stop-color:#4f46e5;stop-opacity:1" />
      <stop offset="100%" style="stop-color:#7c3aed;stop-opacity:1" />
    </linearGradient>
  </defs>
  
  <!-- Logo Icon -->
  <g>
    <rect x="4" y="4" width="52" height="52" rx="12" fill="url(#logoGradient)"/>
    <circle cx="30" cy="30" r="18" fill="white" opacity="0.15"/>
    <path d="M16 16C16 13.7909 17.7909 12 20 12H32C34.2091 12 36 13.7909 36 16V36C36 38.2091 34.2091 40 32 40H20C17.7909 40 16 38.2091 16 36V16Z" fill="white"/>
    <rect x="20" y="20" width="12" height="1.5" rx="0.75" fill="url(#logoGradient)"/>
    <rect x="20" y="24" width="9" height="1.5" rx="0.75" fill="url(#logoGradient)"/>
    <rect x="20" y="28" width="10.5" height="1.5" rx="0.75" fill="url(#logoGradient)"/>
    <path d="M34 30L31 27L28.5 28.5L26 25" stroke="url(#logoGradient)" stroke-width="2" stroke-linecap="round" stroke-linejoin="round" fill="none"/>
    <circle cx="34" cy="30" r="1.5" fill="url(#logoGradient)"/>
  </g>
  
  <!-- Text -->
  <g>
    <text x="68" y="28" font-family="system-ui, -apple-system, 'Segoe UI', sans-serif" font-size="20" font-weight="700" fill="#1e293b" letter-spacing="-0.5">LSA eScale</text>
    <text x="68" y="42" font-family="system-ui, -apple-system, 'Segoe UI', sans-serif" font-size="11" font-weight="500" fill="#64748b" letter-spacing="0.2">Lead Intelligence Hub</text>
  </g>
</svg>
