<svg width="64" height="64" viewBox="0 0 64 64" fill="none" xmlns="http://www.w3.org/2000/svg">
  <defs>
    <linearGradient id="iconGradient" x1="0%" y1="0%" x2="100%" y2="100%">
      <stop offset="0%" style="stop-color:#4f46e5;stop-opacity:1" />
      <stop offset="100%" style="stop-color:#7c3aed;stop-opacity:1" />
    </linearGradient>
  </defs>
  <!-- Background with rounded corners -->
  <rect width="64" height="64" rx="14" fill="url(#iconGradient)"/>
  
  <!-- Decorative circle -->
  <circle cx="32" cy="32" r="22" fill="white" opacity="0.15"/>
  
  <!-- Main shape - represents a lead/document -->
  <path d="M20 20C20 16.6863 22.6863 14 26 14H38C41.3137 14 44 16.6863 44 20V44C44 47.3137 41.3137 50 38 50H26C22.6863 50 20 47.3137 20 44V20Z" fill="white"/>
  
  <!-- Inner content - represents data/analytics -->
  <rect x="24" y="24" width="16" height="2" rx="1" fill="url(#iconGradient)"/>
  <rect x="24" y="30" width="12" height="2" rx="1" fill="url(#iconGradient)"/>
  <rect x="24" y="36" width="14" height="2" rx="1" fill="url(#iconGradient)"/>
  
  <!-- Chart/Graph indicator -->
  <path d="M42 38L38 34L35 37L32 32" stroke="url(#iconGradient)" stroke-width="2.5" stroke-linecap="round" stroke-linejoin="round" fill="none"/>
  <circle cx="42" cy="38" r="2" fill="url(#iconGradient)"/>
</svg>
